<svg xmlns="http://www.w3.org/2000/svg" viewBox="0 0 21.2 22.14"><title>Home</title><g id="Layer_2" data-name="Layer 2"><g id="Layer_1-2" data-name="Layer 1"><path d="M6.92,20.85c0-.91-.06-1.77,0-2.61.1-1.25-.18-2.49.35-3.77a3.77,3.77,0,0,1,3-2.17,3.57,3.57,0,0,1,1.66.37,2.73,2.73,0,0,1,1.94,2.22A51.07,51.07,0,0,1,14,20.25c0,.5.14.63.6.63,1.5,0,3,0,4.51,0,.59,0,.72-.24.72-.76,0-2.85,0-5.7,0-8.55a2.12,2.12,0,0,0-.6-1.24c-.73-.79-1.56-1.49-2.32-2.25s-1.43-1.54-2.17-2.28S13,4.18,12.14,3.36a9.15,9.15,0,0,1-1-1c-.47-.62-.89-.65-1.39-.09Q8.57,3.6,7.29,4.87C6.57,5.59,5.77,6.24,5,7,4,8,3,9.05,2,10.12a2.31,2.31,0,0,0-.79,1.77c.08,2.44,0,4.89,0,7.34v1.62ZM0,16c0-1.75,0-3.5,0-5.25a1.69,1.69,0,0,1,.46-.93C1,9.2,1.61,8.61,2.2,8S3.66,6.6,4.39,5.88s1.67-1.67,2.5-2.51c.4-.4.77-.83,1.16-1.23C8.61,1.57,9.21,1,9.75.45s1-.6,1.52,0c.69.75,1.44,1.45,2.16,2.17L16,5.24c.69.69,1.39,1.38,2.09,2.06.53.51,1.07,1,1.59,1.53.28.28.46.68.78.88.75.46.68,1.15.68,1.86,0,3.19,0,6.38,0,9.56,0,.75-.21,1-1,1-2.2,0-4.4,0-6.6,0-.79,0-.92-.14-.92-1,0-1.84,0-3.68,0-5.52a2.24,2.24,0,0,0-2.6-1.89C8.58,14,8.41,15,8.34,16.28c-.09,1.66,0,3.32,0,5,0,.62-.2.88-.83.88q-3.4,0-6.8,0c-.54,0-.69-.24-.69-.73C0,19.61,0,17.81,0,16Z" style="fill:#17264e"/></g></g></svg>